<?xml version="1.0" encoding="utf-8"?>
<!-- Generator: Adobe Illustrator 19.2.0, SVG Export Plug-In . SVG Version: 6.00 Build 0)  -->
<svg version="1.1" id="圖層_1" xmlns="http://www.w3.org/2000/svg" xmlns:xlink="http://www.w3.org/1999/xlink" x="0px" y="0px"
	 viewBox="0 0 71.9 57.1" style="enable-background:new 0 0 71.9 57.1;" xml:space="preserve">
<style type="text/css">
	.st0{fill:#DB7C28;}
	.st1{fill:#DB7C29;}
	.st2{fill:#CC7629;}
	.st3{fill:#F2F2F4;}
	.st4{fill:#E2E2E2;}
	.st5{fill:#F8931F;}
	.st6{fill:#E78925;}
	.st7{fill:#85361F;}
	.st8{fill:#80341C;}
	.st9{fill:none;stroke:#C5C5C5;stroke-width:2;stroke-linecap:round;stroke-miterlimit:10;}
</style>
<path class="st0" d="M14,45.8c-0.4,0.2-0.8,0.2-1.2,0.1l3.2,8.8c0.6,1.5,2.2,2.3,3.8,1.8l0.4-0.1c1.5-0.6,2.3-2.2,1.7-3.8l-3.2-8.8
	c-0.3,0.3-0.7,0.6-1.1,0.7L14,45.8z"/>
<path class="st1" d="M5,29c-0.1-0.2-0.1-0.3-0.1-0.5L0,33.4l2,5.4l5.8-2.1L5,29z"/>
<path class="st2" d="M7.8,36.6L2,38.7L4,44.4l6.9,0.5c-0.2-0.2-0.3-0.5-0.4-0.7L7.8,36.6L7.8,36.6z"/>
<path class="st3" d="M16.5,33.5l27.2-9.9L36.6,4.1c-0.2-0.4-0.2-0.8-0.2-1.2c-1,2.2-2.5,5-4.7,8c-3.5,4.7-7.1,7.5-9,9
	c-2.6,2-4.4,3-5.3,3.4c-1.6,0.8-3.1,1.4-4.2,1.7c0.2,0.2,0.4,0.5,0.5,0.8L16.5,33.5z"/>
<path class="st4" d="M43.7,23.5l-27.2,9.9l2.7,7.5c0.1,0.3,0.2,0.7,0.2,1.1c1.3-0.5,3-1.1,5.2-1.6c0.9-0.2,4.8-1,10.5-0.7
	c6.3,0.4,11.9,2,16.1,3.8c-0.3-0.3-0.5-0.6-0.6-1L43.7,23.5z"/>
<path class="st5" d="M13.2,25c-0.7-0.9-1.9-1.2-3-0.8l-3.5,1.3c-1.3,0.5-2,1.8-1.8,3.1c0,0.2,0.1,0.3,0.1,0.5l2.8,7.6l0.5-0.2
	c0-0.2,0-0.4,0.1-0.5c0.1,0,0.1-0.1,0.2-0.1l6.5-2.4c0.3-0.1,0.6,0,0.7,0.3l0.4-0.1l0.3-0.1l-2.8-7.6C13.6,25.5,13.4,25.2,13.2,25z"
	/>
<path class="st6" d="M16.2,33.6l-0.4,0.1c0,0,0,0,0,0.1c0.1,0.3,0,0.6-0.3,0.7L9,36.8c-0.1,0-0.2,0-0.2,0c-0.2,0-0.4-0.2-0.5-0.4
	c0,0,0,0,0-0.1l-0.5,0.2l2.7,7.5c0.1,0.3,0.2,0.5,0.4,0.7c0.5,0.6,1.2,1,1.9,1.1c0.4,0,0.8,0,1.2-0.1l3.5-1.3
	c0.4-0.2,0.8-0.4,1.1-0.7c0.4-0.5,0.7-1.1,0.7-1.7c0-0.3,0-0.7-0.2-1.1l-2.7-7.5L16.2,33.6z"/>
<path class="st4" d="M49.4,21.5l2.1,5.8l0.9-0.3c0.2-0.1,0.3-0.1,0.5-0.2L50.8,21L49.4,21.5z"/>
<path class="st3" d="M50.8,21l-2.3-6.3c-0.2,0-0.3,0.1-0.5,0.2l-0.9,0.3l2.3,6.4L50.8,21z"/>
<path class="st5" d="M55.4,19.3L54.9,18c-1-2.6-3.8-4.1-6.4-3.4l2.3,6.3L55.4,19.3z"/>
<path class="st6" d="M50.8,21l2.1,5.8c2.5-1.2,3.7-4.1,2.7-6.8l-0.3-0.7L50.8,21z"/>
<path class="st7" d="M13.2,28l-6.5,2.4c-0.1,0-0.1,0.1-0.2,0.1c-0.1,0.2-0.2,0.4-0.1,0.6c0.1,0.2,0.3,0.4,0.5,0.4c0.1,0,0.2,0,0.2,0
	l6.5-2.4c0.3-0.1,0.4-0.4,0.3-0.7C13.8,28.1,13.4,27.9,13.2,28z"/>
<path class="st8" d="M15.8,33.7l-7.2,2.6l-0.3,0.1c0,0,0,0,0,0.1c0.1,0.2,0.3,0.3,0.5,0.4c0.1,0,0.2,0,0.2,0l6.5-2.4
	C15.8,34.4,16,34,15.8,33.7C15.8,33.7,15.8,33.7,15.8,33.7z"/>
<path class="st8" d="M17.1,38.8l-6.5,2.4c-0.1,0-0.2,0.1-0.2,0.2c-0.1,0.2-0.2,0.4-0.1,0.6c0.1,0.2,0.2,0.3,0.4,0.4
	c0.1,0,0.2,0,0.3,0l6.5-2.4c0.3-0.1,0.4-0.4,0.3-0.7C17.7,38.9,17.4,38.7,17.1,38.8z"/>
<path class="st6" d="M50.6,42.5c0.1,0.4,0.3,0.7,0.6,1c0.5,0.6,1.3,1,2.1,1c0.4,0,0.8,0,1.2-0.2c0,0,0,0,0,0
	c1.6-0.6,2.4-2.3,1.8-3.9l-4.8-13.1l-2.1-5.8l-5.7,2.1L50.6,42.5z"/>
<path class="st5" d="M42.4,2c-0.6-1.6-2.3-2.4-3.9-1.8c-1.2,0.4-1.9,1.5-2,2.7c0,0.4,0,0.8,0.2,1.2l7.1,19.4l5.7-2.1l-2.3-6.4
	L42.4,2z"/>
<line class="st9" x1="60" y1="17.5" x2="70.4" y2="13.7"/>
<line class="st9" x1="56.7" y1="14" x2="62.2" y2="4.3"/>
<line class="st9" x1="59" y1="21.6" x2="69" y2="27.1"/>
<path class="st7" d="M15.1,33.4l-6.5,2.4c-0.1,0-0.2,0.1-0.2,0.1c-0.1,0.1-0.2,0.3-0.1,0.5l0.3-0.1l7.2-2.6
	C15.7,33.5,15.4,33.3,15.1,33.4z"/>
</svg>
