<?xml version="1.0" encoding="utf-8"?>
<!-- Generator: Adobe Illustrator 19.2.0, SVG Export Plug-In . SVG Version: 6.00 Build 0)  -->
<svg version="1.1" id="圖層_1" xmlns="http://www.w3.org/2000/svg" xmlns:xlink="http://www.w3.org/1999/xlink" x="0px" y="0px"
	 viewBox="0 0 111 107" style="enable-background:new 0 0 111 107;" xml:space="preserve">
<style type="text/css">
	.st0{clip-path:url(#SVGID_2_);fill:#A3D4E2;}
	.st1{clip-path:url(#SVGID_2_);fill:#FFFFFF;}
	.st2{clip-path:url(#SVGID_2_);fill:#0B2F3E;}
	.st3{fill:#423F38;}
	.st4{fill:#4C4A47;}
	.st5{fill:#CEABA8;}
	.st6{fill:#082029;}
	.st7{fill:#362A24;}
	.st8{fill:#3E312E;}
	.st9{fill:#FFFFFF;}
	.st10{fill:#18263B;}
	.st11{fill:#CA1F29;}
	.st12{fill:#F5CD1E;}
	.st13{fill:#B6D22D;}
	.st14{fill:#CC411A;}
	.st15{fill:#A3D4E1;}
	.st16{fill:#002D3E;}
	.st17{fill:#EB6027;}
	.st18{fill:#C9351E;}
	.st19{fill:#B4C6CA;}
	.st20{fill:#F5B217;}
	.st21{fill:#C9CACA;}
	.st22{fill:#CFE9F7;}
</style>
<g>
	<defs>
		<rect id="SVGID_1_" x="0.1" y="0.7" width="110" height="106.2"/>
	</defs>
	<clipPath id="SVGID_2_">
		<use xlink:href="#SVGID_1_"  style="overflow:visible;"/>
	</clipPath>
	<path class="st0" d="M42.2,90.3c-1.2,4.8-2.3,9.5-3.5,14.3c10.9,0,21.7,0,32.6,0c-1.2-4.8-2.3-9.5-3.5-14.3
		C59.3,90.3,50.8,90.3,42.2,90.3"/>
	<path class="st1" d="M73.3,104.3H36.7c-0.9,0-1.7,0.9-1.7,2v0.7h40v-0.7C75,105.2,74.2,104.3,73.3,104.3"/>
	<path class="st1" d="M0,84.7v7.9c0,1.5,1.2,2.7,2.7,2.7h104.6c1.5,0,2.7-1.2,2.7-2.7v-7.9H0"/>
	<path class="st2" d="M110,84.7V18.1c0-1.5-1.2-2.7-2.7-2.7H2.7c-1.5,0-2.7,1.2-2.7,2.7v66.6H110"/>
</g>
<rect x="4.5" y="19.7" class="st3" width="101" height="60.5"/>
<polyline class="st4" points="4.5,80.2 105.5,19.7 105.5,80.2 4.5,80.2 "/>
<path class="st5" d="M87.5,15.4H26V7.9c0-2.2,1.5-4,3.3-4h54.9c1.8,0,3.3,1.8,3.3,4V15.4"/>
<rect x="26" y="15.4" class="st6" width="61.5" height="4.3"/>
<polyline class="st7" points="26,67.3 26,19.7 87.5,19.7 87.5,30.5 26,67.3 "/>
<path class="st8" d="M84.2,79.3H29.3c-1.8,0-3.3-1.8-3.3-4v-8l61.5-36.8v44.8C87.5,77.5,86,79.3,84.2,79.3"/>
<path class="st9" d="M81,76.1H26c-1.8,0-3.3-1.8-3.3-4V4.7c0-2.2,1.5-4,3.3-4H81c1.8,0,3.3,1.8,3.3,4v67.4
	C84.2,74.3,82.8,76.1,81,76.1"/>
<path class="st10" d="M80.8,0.7H25.8c-1.8,0-3.3,1.8-3.3,4v6.8H84V4.7C84,2.5,82.6,0.7,80.8,0.7"/>
<path class="st11" d="M28.7,6c0,0.6-0.5,1.2-1.2,1.2c-0.6,0-1.2-0.5-1.2-1.2c0-0.6,0.5-1.2,1.2-1.2C28.2,4.9,28.7,5.4,28.7,6"/>
<path class="st12" d="M32.2,6c0,0.6-0.5,1.2-1.2,1.2c-0.6,0-1.2-0.5-1.2-1.2c0-0.6,0.5-1.2,1.2-1.2C31.7,4.9,32.2,5.4,32.2,6"/>
<path class="st13" d="M35.7,6c0,0.6-0.5,1.2-1.2,1.2S33.4,6.7,33.4,6c0-0.6,0.5-1.2,1.2-1.2S35.7,5.4,35.7,6"/>
<polyline class="st14" points="27.3,16.5 27.3,16.8 60.1,16.8 60.1,16.3 27.3,16.3 27.3,16.8 27.3,16.5 27.3,16.8 60.1,16.8 
	60.1,16.3 27.3,16.3 27.3,16.8 27.3,16.5 "/>
<polyline class="st15" points="27.3,20.2 27.3,20.4 79.3,20.4 79.3,19.9 27.3,19.9 27.3,20.4 27.3,20.2 27.3,20.4 79.3,20.4 
	79.3,19.9 27.3,19.9 27.3,20.4 27.3,20.2 "/>
<polyline class="st15" points="63.6,16.5 63.6,16.8 72.1,16.8 72.1,16.3 63.6,16.3 63.6,16.8 63.6,16.5 63.6,16.8 72.1,16.8 
	72.1,16.3 63.6,16.3 63.6,16.8 63.6,16.5 "/>
<polyline class="st15" points="74.4,16.5 74.4,16.8 79.3,16.8 79.3,16.3 74.4,16.3 74.4,16.8 74.4,16.5 74.4,16.8 79.3,16.8 
	79.3,16.3 74.4,16.3 74.4,16.8 74.4,16.5 "/>
<rect x="27.3" y="25.7" class="st10" width="14.1" height="14.4"/>
<polyline class="st16" points="27.5,43.1 27.5,43.4 34.4,43.4 34.4,42.9 27.5,42.9 27.5,43.4 27.5,43.1 27.5,43.4 34.4,43.4 
	34.4,42.9 27.5,42.9 27.5,43.4 27.5,43.1 "/>
<polyline class="st16" points="35.6,43.1 35.6,43.4 37.6,43.4 37.6,42.9 35.6,42.9 35.6,43.4 35.6,43.1 35.6,43.4 37.6,43.4 
	37.6,42.9 35.6,42.9 35.6,43.4 35.6,43.1 "/>
<polyline class="st16" points="38.5,43.1 38.5,43.4 41.4,43.4 41.4,42.9 38.5,42.9 38.5,43.4 38.5,43.1 38.5,43.4 41.4,43.4 
	41.4,42.9 38.5,42.9 38.5,43.4 38.5,43.1 "/>
<polyline class="st17" points="45.5,26.1 45.5,26.3 67.8,26.3 67.8,25.8 45.5,25.8 45.5,26.3 45.5,26.1 45.5,26.3 67.8,26.3 
	67.8,25.8 45.5,25.8 45.5,26.3 45.5,26.1 "/>
<polyline class="st17" points="45.5,28.2 45.5,28.5 72.1,28.5 72.1,28 45.5,28 45.5,28.5 45.5,28.2 45.5,28.5 72.1,28.5 72.1,28 
	45.5,28 45.5,28.5 45.5,28.2 "/>
<polyline class="st17" points="45.5,30.4 45.5,30.7 62.8,30.7 62.8,30.2 45.5,30.2 45.5,30.7 45.5,30.4 45.5,30.7 62.8,30.7 
	62.8,30.2 45.5,30.2 45.5,30.7 45.5,30.4 "/>
<polyline class="st17" points="64.4,30.4 64.4,30.7 75.6,30.7 75.6,30.2 64.4,30.2 64.4,30.7 64.4,30.4 64.4,30.7 75.6,30.7 
	75.6,30.2 64.4,30.2 64.4,30.7 64.4,30.4 "/>
<polyline class="st17" points="77.1,30.4 77.1,30.7 79.6,30.7 79.6,30.2 77.1,30.2 77.1,30.7 77.1,30.4 77.1,30.7 79.6,30.7 
	79.6,30.2 77.1,30.2 77.1,30.7 77.1,30.4 "/>
<polyline class="st17" points="69.4,26.1 69.4,26.3 75.6,26.3 75.6,25.8 69.4,25.8 69.4,26.3 69.4,26.1 69.4,26.3 75.6,26.3 
	75.6,25.8 69.4,25.8 69.4,26.3 69.4,26.1 "/>
<polyline class="st17" points="73.4,28.2 73.4,28.5 79.6,28.5 79.6,28 73.4,28 73.4,28.5 73.4,28.2 73.4,28.5 79.6,28.5 79.6,28 
	73.4,28 73.4,28.5 73.4,28.2 "/>
<polyline class="st17" points="76.7,26.1 76.7,26.3 79.6,26.3 79.6,25.8 76.7,25.8 76.7,26.3 76.7,26.1 76.7,26.3 79.6,26.3 
	79.6,25.8 76.7,25.8 76.7,26.3 76.7,26.1 "/>
<polyline class="st15" points="79.6,34.8 79.6,34.5 57.3,34.5 57.3,35 79.6,35 79.6,34.5 79.6,34.8 79.6,34.5 57.3,34.5 57.3,35 
	79.6,35 79.6,34.5 79.6,34.8 "/>
<polyline class="st15" points="79.6,36.9 79.6,36.7 53,36.7 53,37.2 79.6,37.2 79.6,36.7 79.6,36.9 79.6,36.7 53,36.7 53,37.2 
	79.6,37.2 79.6,36.7 79.6,36.9 "/>
<polyline class="st15" points="79.6,39.1 79.6,38.9 62.3,38.9 62.3,39.4 79.6,39.4 79.6,38.9 79.6,39.1 79.6,38.9 62.3,38.9 
	62.3,39.4 79.6,39.4 79.6,38.9 79.6,39.1 "/>
<polyline class="st15" points="60.8,39.1 60.8,38.9 49.5,38.9 49.5,39.4 60.8,39.4 60.8,38.9 60.8,39.1 60.8,38.9 49.5,38.9 
	49.5,39.4 60.8,39.4 60.8,38.9 60.8,39.1 "/>
<polyline class="st15" points="48.1,39.1 48.1,38.9 45.5,38.9 45.5,39.4 48.1,39.4 48.1,38.9 48.1,39.1 48.1,38.9 45.5,38.9 
	45.5,39.4 48.1,39.4 48.1,38.9 48.1,39.1 "/>
<polyline class="st15" points="55.7,34.8 55.7,34.5 49.5,34.5 49.5,35 55.7,35 55.7,34.5 55.7,34.8 55.7,34.5 49.5,34.5 49.5,35 
	55.7,35 55.7,34.5 55.7,34.8 "/>
<polyline class="st15" points="51.7,36.9 51.7,36.7 45.5,36.7 45.5,37.2 51.7,37.2 51.7,36.7 51.7,36.9 51.7,36.7 45.5,36.7 
	45.5,37.2 51.7,37.2 51.7,36.7 51.7,36.9 "/>
<polyline class="st15" points="48.5,34.8 48.5,34.5 45.5,34.5 45.5,35 48.5,35 48.5,34.5 48.5,34.8 48.5,34.5 45.5,34.5 45.5,35 
	48.5,35 48.5,34.5 48.5,34.8 "/>
<rect x="65.5" y="46.7" class="st18" width="14.1" height="14.4"/>
<polyline class="st16" points="79.5,64.1 79.5,63.9 72.6,63.9 72.6,64.4 79.5,64.4 79.5,63.9 79.5,64.1 79.5,63.9 72.6,63.9 
	72.6,64.4 79.5,64.4 79.5,63.9 79.5,64.1 "/>
<polyline class="st16" points="71.4,64.1 71.4,63.9 69.3,63.9 69.3,64.4 71.4,64.4 71.4,63.9 71.4,64.1 71.4,63.9 69.3,63.9 
	69.3,64.4 71.4,64.4 71.4,63.9 71.4,64.1 "/>
<polyline class="st16" points="68.5,64.1 68.5,63.9 65.5,63.9 65.5,64.4 68.5,64.4 68.5,63.9 68.5,64.1 68.5,63.9 65.5,63.9 
	65.5,64.4 68.5,64.4 68.5,63.9 68.5,64.1 "/>
<polyline class="st19" points="71.8,70.3 71.8,70.3 66,70.3 66,70.3 71.8,70.3 71.8,70.3 71.8,70.3 71.8,70.3 66,70.3 66,70.3 
	71.8,70.3 71.8,70.3 71.8,70.3 "/>
<polyline class="st20" points="63.6,70.3 63.6,70.3 50.8,70.3 50.8,70.3 63.6,70.3 63.6,70.3 63.6,70.3 63.6,70.3 50.8,70.3 
	50.8,70.3 63.6,70.3 63.6,70.3 63.6,70.3 "/>
<polyline class="st19" points="49.1,70.3 49.1,70.3 34.8,70.3 34.8,70.3 49.1,70.3 49.1,70.3 49.1,70.3 49.1,70.3 34.8,70.3 
	34.8,70.3 49.1,70.3 49.1,70.3 49.1,70.3 "/>
<polyline class="st15" points="61.4,47.1 61.4,46.8 39.1,46.8 39.1,47.3 61.4,47.3 61.4,46.8 61.4,47.1 61.4,46.8 39.1,46.8 
	39.1,47.3 61.4,47.3 61.4,46.8 61.4,47.1 "/>
<polyline class="st15" points="61.4,49.3 61.4,49 34.8,49 34.8,49.5 61.4,49.5 61.4,49 61.4,49.3 61.4,49 34.8,49 34.8,49.5 
	61.4,49.5 61.4,49 61.4,49.3 "/>
<polyline class="st15" points="61.4,51.4 61.4,51.2 44.1,51.2 44.1,51.7 61.4,51.7 61.4,51.2 61.4,51.4 61.4,51.2 44.1,51.2 
	44.1,51.7 61.4,51.7 61.4,51.2 61.4,51.4 "/>
<polyline class="st20" points="42.6,51.4 42.6,51.2 31.3,51.2 31.3,51.7 42.6,51.7 42.6,51.2 42.6,51.4 42.6,51.2 31.3,51.2 
	31.3,51.7 42.6,51.7 42.6,51.2 42.6,51.4 "/>
<polyline class="st20" points="29.9,51.4 29.9,51.2 27.3,51.2 27.3,51.7 29.9,51.7 29.9,51.2 29.9,51.4 29.9,51.2 27.3,51.2 
	27.3,51.7 29.9,51.7 29.9,51.2 29.9,51.4 "/>
<polyline class="st15" points="37.5,47.1 37.5,46.8 31.3,46.8 31.3,47.3 37.5,47.3 37.5,46.8 37.5,47.1 37.5,46.8 31.3,46.8 
	31.3,47.3 37.5,47.3 37.5,46.8 37.5,47.1 "/>
<polyline class="st15" points="33.5,49.3 33.5,49 27.3,49 27.3,49.5 33.5,49.5 33.5,49 33.5,49.3 33.5,49 27.3,49 27.3,49.5 
	33.5,49.5 33.5,49 33.5,49.3 "/>
<polyline class="st15" points="30.3,47.1 30.3,46.8 27.3,46.8 27.3,47.3 30.3,47.3 30.3,46.8 30.3,47.1 30.3,46.8 27.3,46.8 
	27.3,47.3 30.3,47.3 30.3,46.8 30.3,47.1 "/>
<polyline class="st17" points="27.3,55.8 27.3,56 49.6,56 49.6,55.5 27.3,55.5 27.3,56 27.3,55.8 27.3,56 49.6,56 49.6,55.5 
	27.3,55.5 27.3,56 27.3,55.8 "/>
<polyline class="st17" points="27.3,58 27.3,58.2 53.9,58.2 53.9,57.7 27.3,57.7 27.3,58.2 27.3,58 27.3,58.2 53.9,58.2 53.9,57.7 
	27.3,57.7 27.3,58.2 27.3,58 "/>
<polyline class="st17" points="27.3,60.1 27.3,60.4 44.6,60.4 44.6,59.9 27.3,59.9 27.3,60.4 27.3,60.1 27.3,60.4 44.6,60.4 
	44.6,59.9 27.3,59.9 27.3,60.4 27.3,60.1 "/>
<polyline class="st17" points="46.2,60.1 46.2,60.4 57.4,60.4 57.4,59.9 46.2,59.9 46.2,60.4 46.2,60.1 46.2,60.4 57.4,60.4 
	57.4,59.9 46.2,59.9 46.2,60.4 46.2,60.1 "/>
<polyline class="st17" points="58.9,60.1 58.9,60.4 61.4,60.4 61.4,59.9 58.9,59.9 58.9,60.4 58.9,60.1 58.9,60.4 61.4,60.4 
	61.4,59.9 58.9,59.9 58.9,60.4 58.9,60.1 "/>
<polyline class="st17" points="51.3,55.8 51.3,56 57.4,56 57.4,55.5 51.3,55.5 51.3,56 51.3,55.8 51.3,56 57.4,56 57.4,55.5 
	51.3,55.5 51.3,56 51.3,55.8 "/>
<polyline class="st17" points="55.2,58 55.2,58.2 61.4,58.2 61.4,57.7 55.2,57.7 55.2,58.2 55.2,58 55.2,58.2 61.4,58.2 61.4,57.7 
	55.2,57.7 55.2,58.2 55.2,58 "/>
<polyline class="st17" points="58.5,55.8 58.5,56 61.4,56 61.4,55.5 58.5,55.5 58.5,56 58.5,55.8 58.5,56 61.4,56 61.4,55.5 
	58.5,55.5 58.5,56 58.5,55.8 "/>
<polyline class="st9" points="38.5,6.1 38.5,6.4 77.9,6.4 77.9,5.9 38.5,5.9 38.5,6.4 38.5,6.1 38.5,6.4 77.9,6.4 77.9,5.9 
	38.5,5.9 38.5,6.4 38.5,6.1 "/>
<path class="st9" d="M98,65.9h-0.4c-0.1,0-0.2-0.1-0.2-0.2l-0.1-0.2l0-0.3l0.3-0.3v-0.2l-0.4-0.4H97l-0.3,0.3l-0.3,0l-0.2-0.1
	l-0.2-0.2V64L96,63.9h-0.6L95.3,64v0.4l-0.2,0.2l-0.2,0.1l-0.3,0l-0.3-0.3h-0.2l-0.4,0.4V65l0.3,0.3l0,0.3L94,65.7l-0.2,0.2h-0.4
	L93.2,66v0.6l0.2,0.2h0.4L94,67l0.1,0.2l0,0.3l-0.3,0.3v0.2l0.4,0.4h0.2l0.3-0.3l0.3,0l0.2,0.1l0.2,0.2v0.4l0.2,0.2H96l0.2-0.2v-0.4
	l0.2-0.2l0.2-0.1l0.3,0l0.3,0.3h0.2l0.4-0.4v-0.2l-0.3-0.3l0-0.3l0.1-0.2c0-0.1,0.1-0.2,0.2-0.2H98l0.2-0.2V66L98,65.9 M95.7,67.1
	c-0.4,0-0.8-0.4-0.8-0.8c0-0.4,0.4-0.8,0.8-0.8c0.4,0,0.8,0.4,0.8,0.8C96.5,66.8,96.1,67.1,95.7,67.1z"/>
<path class="st9" d="M95.1,34.6h-1.9c-0.1,0-0.3-0.1-0.3-0.3v-2.4c0-0.1,0.1-0.3,0.3-0.3h1.9c0.1,0,0.3,0.1,0.3,0.3v2.4
	C95.4,34.5,95.3,34.6,95.1,34.6 M93.4,34.2h1.5v-2.1h-1.5V34.2z"/>
<path class="st9" d="M98.1,34.6h-1.9c-0.1,0-0.3-0.1-0.3-0.3v-5.2c0-0.1,0.1-0.3,0.3-0.3h1.9c0.1,0,0.3,0.1,0.3,0.3v5.2
	C98.4,34.5,98.3,34.6,98.1,34.6 M96.4,34.2h1.5v-4.8h-1.5V34.2z"/>
<path class="st9" d="M101.1,34.6h-1.9c-0.1,0-0.3-0.1-0.3-0.3v-8c0-0.1,0.1-0.3,0.3-0.3h1.9c0.1,0,0.3,0.1,0.3,0.3v8
	C101.4,34.5,101.3,34.6,101.1,34.6 M99.4,34.2h1.5v-7.6h-1.5V34.2z"/>
<g>
	<path class="st9" d="M13.3,23.5c-2,0-3.5,1.6-3.5,3.5c0,1.9,1.6,3.5,3.5,3.5c1.9,0,3.5-1.6,3.5-3.5C16.9,25.1,15.3,23.5,13.3,23.5z
		 M13.3,30.4c-1.8,0-3.4-1.5-3.4-3.4s1.5-3.4,3.4-3.4s3.4,1.5,3.4,3.4S15.2,30.4,13.3,30.4z"/>
	<polygon class="st9" points="14.6,24.9 14.7,24.9 14.7,24.8 14.7,24.7 14.6,24.7 14.5,24.8 14.6,24.9 	"/>
	<polygon class="st9" points="12,29.2 11.9,29.4 11.9,29.5 12,29.5 12,29.5 12.1,29.3 12.1,29.2 	"/>
	<polygon class="st9" points="15.6,28.3 15.5,28.3 15.5,28.4 15.6,28.5 15.7,28.5 15.7,28.5 15.7,28.4 	"/>
	<polygon class="st9" points="11,25.7 10.9,25.7 10.9,25.8 11.1,25.9 11.1,25.9 11.2,25.8 11.2,25.7 	"/>
	<polygon class="st9" points="11.9,24.7 11.9,24.8 12,24.9 12.1,24.9 12.1,24.9 12.1,24.8 12,24.7 	"/>
	<polygon class="st9" points="14.6,29.2 14.5,29.3 14.6,29.5 14.7,29.5 14.7,29.5 14.7,29.4 14.7,29.2 	"/>
	<polygon class="st9" points="10.9,28.4 10.9,28.5 11,28.5 11,28.5 11.2,28.4 11.2,28.3 11.1,28.3 	"/>
	<polygon class="st9" points="15.5,25.7 15.5,25.8 15.5,25.9 15.6,25.9 15.7,25.8 15.7,25.7 15.6,25.7 	"/>
	<polygon class="st9" points="10.6,27 10.5,27.1 10.6,27.1 10.8,27.1 10.8,27.1 10.8,27 	"/>
	<polygon class="st9" points="16,27 15.9,27 15.8,27.1 15.9,27.1 16,27.1 16.1,27.1 	"/>
	<polygon class="st9" points="13.3,29.5 13.3,29.6 13.3,29.8 13.3,29.9 13.3,29.9 13.4,29.8 13.4,29.6 13.3,29.5 	"/>
	<polygon class="st9" points="13.4,24.5 13.4,24.4 13.3,24.3 13.3,24.4 13.3,24.5 13.3,24.6 	"/>
	<path class="st9" d="M13.8,26.9c-0.1-0.1-0.2-0.2-0.3-0.3V25l-0.1-0.1L13.2,25v1.6c-0.2,0.1-0.4,0.3-0.4,0.5c0,0.1,0,0.2,0.1,0.3
		l-0.6,0.6v0.2l0.1,0l0.1,0l0.6-0.6c0.1,0,0.2,0.1,0.3,0.1c0.3,0,0.5-0.2,0.5-0.5c0,0,0-0.1,0-0.1l1.4-0.4l0-0.1l-0.1,0L13.8,26.9z
		 M13.7,27.1c0,0.2-0.1,0.3-0.3,0.3c-0.1,0-0.2,0-0.2-0.1c0,0,0,0,0,0C13,27.2,13,27.2,13,27.1c0-0.2,0.1-0.3,0.3-0.3
		c0.1,0,0.2,0.1,0.3,0.2l-0.1,0c0,0-0.1-0.1-0.1-0.1c-0.1,0-0.2,0.1-0.2,0.2c0,0.1,0.1,0.2,0.2,0.2c0.1,0,0.1-0.1,0.2-0.1L13.7,27.1
		C13.6,27.1,13.7,27.1,13.7,27.1z"/>
</g>
<polyline class="st21" points="65.3,71.5 69.8,57.8 62.9,60 56.1,62.3 60.8,64.7 57.1,68.3 59.3,70.5 62.9,66.8 65.3,71.5 "/>
<polyline class="st9" points="65.3,69.6 69.8,55.8 62.9,58.1 56.1,60.3 60.8,62.7 57.1,66.4 59.3,68.5 62.9,64.9 65.3,69.6 "/>
<polyline class="st22" points="67.6,62.7 69.8,55.8 69.6,55.9 58.1,67.4 59.3,68.5 62.9,64.9 65.3,69.6 67.6,62.7 "/>
<g>
	<path class="st9" d="M17.3,59.6h-0.4l-2.3-7l-0.2-0.1l-0.2,0.1l-2.3,7h-0.4c-0.1,0-0.2,0.1-0.2,0.2c0,0.1,0.1,0.2,0.2,0.2h1.1
		c0.1,0,0.2-0.1,0.2-0.2c0-0.1-0.1-0.2-0.2-0.2h-0.4l0.6-1.9c0,0,0,0,0,0h3c0,0,0,0,0,0l0.6,1.9h-0.4c-0.1,0-0.2,0.1-0.2,0.2
		c0,0.1,0.1,0.2,0.2,0.2h1.1c0.1,0,0.2-0.1,0.2-0.2C17.4,59.6,17.4,59.6,17.3,59.6z M13.1,57.4l1.4-4.2l1.4,4.2H13.1z"/>
	<path class="st9" d="M18,52.6h-0.2c-0.5,0-0.9,0.3-1,0.7l0.1,0.2l0.2-0.1c0.1-0.3,0.4-0.5,0.7-0.5H18c0.4,0,0.8,0.4,0.8,0.9V54
		c-0.2,0.1-0.4,0.1-0.8,0.2c-0.4,0.1-0.6,0.1-0.8,0.2c-0.2,0-0.3,0.1-0.5,0.3c-0.2,0.1-0.3,0.3-0.3,0.6c0,0.3,0.1,0.5,0.3,0.6
		c0.2,0.2,0.4,0.3,0.7,0.3c0.3,0,0.6-0.1,0.8-0.2c0.2-0.1,0.3-0.2,0.5-0.4V56c0,0.1,0.1,0.2,0.2,0.2s0.2-0.1,0.2-0.2v-2.2
		C19.2,53.2,18.7,52.6,18,52.6z M18.6,55.3c-0.1,0.2-0.2,0.3-0.4,0.4c-0.2,0.1-0.4,0.2-0.6,0.2c-0.2,0-0.4-0.1-0.5-0.2
		c-0.1-0.1-0.2-0.2-0.2-0.4c0-0.2,0-0.3,0.1-0.3c0.1-0.1,0.2-0.2,0.3-0.2c0.1,0,0.4-0.1,0.8-0.2c0.3-0.1,0.5-0.1,0.6-0.2
		C18.8,54.8,18.7,55.1,18.6,55.3z"/>
	<path class="st9" d="M101.4,52.8l-0.1-0.2c-0.2-0.1-0.6-0.6-0.6-0.9c-0.2-1.9-1.3-3-1.3-3c-0.6-0.6-1.4-0.9-2.2-0.9
		s-1.6,0.3-2.2,0.9c-0.6,0.6-0.9,1.4-0.9,2.2s0.3,1.6,0.9,2.2c0,0,1.1,1,3,1.3c0.4,0.1,0.8,0.5,1,0.6l0.2,0.1h0l0.2-0.1l2.1-2.1
		L101.4,52.8z M99.7,53.9L97.4,52l0.1-0.2l0.3-0.1l0.1-0.3l0.3-0.1l0.1-0.3l0.2-0.1l1.8,2.3L99.7,53.9z M100.5,53.1L98,50l-0.4,0.3
		l0.3,0.4l0,0l-0.3,0.1L97.6,51l-0.3,0.1l-0.1,0.3L97,51.5l-0.1,0.2l-0.4-0.3l-0.3,0.4l3.1,2.4L99,54.6c-0.2-0.2-0.6-0.6-1.1-0.6
		c-1.8-0.2-2.7-1.1-2.7-1.1c-0.5-0.5-0.8-1.2-0.8-1.9s0.3-1.4,0.8-1.9s1.2-0.8,1.9-0.8c0.7,0,1.4,0.3,1.9,0.8c0,0,0.9,1,1.1,2.7
		c0.1,0.4,0.4,0.8,0.6,1.1L100.5,53.1z"/>
	<path class="st9" d="M102,53.2c-0.1-0.1-0.2-0.1-0.3,0l-2.2,2.2c-0.1,0.1-0.1,0.2,0,0.3l0.2,0.1l0.2-0.1l2.2-2.2
		C102.1,53.4,102.1,53.3,102,53.2z"/>
	<path class="st9" d="M102.3,54.1c-0.1-0.1-0.2-0.1-0.3,0l-1.7,1.7c-0.1,0.1-0.1,0.2,0,0.3l0.2,0.1l0.2-0.1l1.7-1.7
		C102.4,54.3,102.4,54.2,102.3,54.1z"/>
</g>
</svg>
