<?xml version="1.0" encoding="utf-8"?>
<!-- Generator: Adobe Illustrator 19.2.0, SVG Export Plug-In . SVG Version: 6.00 Build 0)  -->
<svg version="1.1" id="圖層_1" xmlns="http://www.w3.org/2000/svg" xmlns:xlink="http://www.w3.org/1999/xlink" x="0px" y="0px"
	 viewBox="0 0 104 117" style="enable-background:new 0 0 104 117;" xml:space="preserve">
<style type="text/css">
	.st0{clip-path:url(#SVGID_2_);fill:#F4BA1F;}
	.st1{clip-path:url(#SVGID_2_);fill:#FFFFFF;}
	.st2{clip-path:url(#SVGID_2_);fill:#EF9624;}
	.st3{fill:#EF9624;}
	.st4{fill:#FFFFFF;}
	.st5{fill:#2E9CCC;}
	.st6{fill:#DA4757;}
</style>
<g>
	<defs>
		<rect id="SVGID_1_" x="0.1" y="0.1" width="103.8" height="116.9"/>
	</defs>
	<clipPath id="SVGID_2_">
		<use xlink:href="#SVGID_1_"  style="overflow:visible;"/>
	</clipPath>
	<polyline class="st0" points="0,73.8 0,14.4 14.2,0.1 53.9,0.1 53.9,73.8 0,73.8 	"/>
	<polyline class="st1" points="14.2,14.4 0,14.4 14.2,0.1 14.2,14.4 	"/>
	<polyline class="st2" points="0,14.4 14.2,14.4 0,28.6 0,14.4 	"/>
</g>
<path class="st3" d="M53.9,36.6L42.1,24.7c-0.3-0.3-0.6-0.6-0.9-0.9l-0.1-0.1l0,0c-0.9-0.7-1.9-1-3.1-1h-1.1c-2.1,0-4.1,1.3-4.9,3.4
	c-0.2,0.4,0,0.9,0.4,1c0,0,0.1,0,0.1,0l3.5,3.5c-0.7,0.2-1.2,0.3-1.5,0.4c-0.8,0.2-1.5,0.6-2.2,1.2c-0.1,0.1-0.2,0.2-0.2,0.3
	L21.9,22.4c-0.1-0.3-0.4-0.5-0.7-0.5c-0.3,0-0.6,0.2-0.7,0.5L9.7,55.3H8c-0.4,0-0.8,0.3-0.8,0.8c0,0.3,0.2,0.6,0.5,0.7l17,17h29.2
	V36.6"/>
<path class="st4" d="M32.1,56.8c-0.3,0-0.6-0.2-0.7-0.5L21.2,25.2L11,56.3c-0.1,0.4-0.6,0.6-1,0.5c-0.4-0.1-0.6-0.6-0.5-1l10.9-33.4
	c0.1-0.3,0.4-0.5,0.7-0.5s0.6,0.2,0.7,0.5l10.9,33.4c0.1,0.4-0.1,0.8-0.5,1C32.3,56.8,32.2,56.8,32.1,56.8"/>
<path class="st4" d="M13.2,56.8H8c-0.4,0-0.8-0.3-0.8-0.8c0-0.4,0.3-0.8,0.8-0.8h5.2c0.4,0,0.8,0.3,0.8,0.8
	C14,56.5,13.6,56.8,13.2,56.8"/>
<path class="st4" d="M34.4,56.8h-5.2c-0.4,0-0.8-0.3-0.8-0.8c0-0.4,0.3-0.8,0.8-0.8h5.2c0.4,0,0.8,0.3,0.8,0.8
	C35.2,56.5,34.9,56.8,34.4,56.8"/>
<path class="st4" d="M28.2,46.6h-14c-0.4,0-0.8-0.3-0.8-0.8s0.3-0.8,0.8-0.8h14c0.4,0,0.8,0.3,0.8,0.8S28.6,46.6,28.2,46.6"/>
<path class="st4" d="M35.8,39.4c-1.4,0-2.5-0.4-3.3-1.2c-0.9-0.8-1.3-1.9-1.3-3c0-1.2,0.4-2.1,1.2-2.8c0.7-0.6,1.4-1,2.2-1.2
	c0.6-0.2,1.8-0.4,3.7-0.8c1.8-0.4,3-0.7,3.9-1.1c0.2-0.1,0.5-0.1,0.7,0.1c0.2,0.1,0.3,0.4,0.3,0.6v0.9c0,2.4-0.3,4.1-0.9,5.2
	c-0.6,1-1.4,1.8-2.6,2.4C38.4,39.1,37.2,39.4,35.8,39.4 M41.6,31c-0.8,0.2-1.8,0.5-3,0.8c-1.9,0.4-3,0.7-3.6,0.8
	c-0.6,0.2-1.1,0.5-1.6,0.9c-0.4,0.4-0.6,0.9-0.6,1.6c0,0.8,0.3,1.4,0.8,1.9c0.6,0.5,1.3,0.8,2.3,0.8c1.1,0,2.1-0.2,3.1-0.7
	c0.9-0.5,1.6-1.1,2-1.8C41.3,34.4,41.6,33,41.6,31z"/>
<path class="st4" d="M42.5,39.2c-0.4,0-0.8-0.3-0.8-0.8V28.3c0-2.2-1.7-4-3.8-4h-1.1c-1.5,0-2.9,1-3.5,2.4c-0.2,0.4-0.6,0.6-1,0.4
	c-0.4-0.2-0.6-0.6-0.4-1c0.8-2.1,2.8-3.4,4.9-3.4H38c2.9,0,5.3,2.5,5.3,5.6v10.2C43.3,38.9,42.9,39.2,42.5,39.2"/>
<path class="st4" d="M88.8,68c0-11.9-8.4-21.5-18.8-21.5S51.2,56.1,51.2,68c0,7.9,3.8,14.8,9.3,18.5v8.6h18.7v-8.4
	C84.9,83.1,88.8,76.1,88.8,68"/>
<path class="st5" d="M91.2,65.4c0-12.1-9.7-21.9-21.8-21.9c-12,0-21.8,9.8-21.8,21.9c0,7.9,4.2,17.1,10.4,22.6l-0.6,9.9
	c0.6-0.3,1.2-0.5,1.9-0.5h21c0.5,0,1,0.1,1.5,0.3l-0.6-10.1C87.2,82.1,91.2,73.1,91.2,65.4 M78.1,84.2l-1.6,1.5l0.5,8H62.3l0.4-7.6
	L61,84.6c-5.2-4.6-8.8-12.4-8.8-19.2c0-9.5,7.7-17.3,17.2-17.3c9.5,0,17.2,7.7,17.2,17.3C86.6,71.9,83.1,79.7,78.1,84.2z"/>
<path class="st5" d="M80.4,98.7h-21c-1.5,0-2.8,1.2-2.8,2.8c0,1.5,1.2,2.8,2.8,2.8h21c1.5,0,2.8-1.2,2.8-2.8
	C83.1,99.9,81.9,98.7,80.4,98.7"/>
<path class="st5" d="M79.4,105H60c-1.4,0-2.5,1.2-2.5,2.8c0,1.5,1.1,2.8,2.5,2.8h19.3c1.4,0,2.5-1.2,2.5-2.8
	C81.9,106.3,80.8,105,79.4,105"/>
<path class="st5" d="M77.7,111.5H61.8c-1.2,0-2.1,1.2-2.1,2.8c0,1.5,0.9,2.8,2.1,2.8h15.9c1.2,0,2.1-1.2,2.1-2.8
	C79.8,112.7,78.8,111.5,77.7,111.5"/>
<path class="st6" d="M98.7,63.2c-0.2-3.6-1.1-7.2-2.7-10.6l4.3-3.3l-7.6-9.8l-4.2,3.2c-2.9-2.5-6.2-4.4-9.7-5.6l0.7-5.5L67.2,30
	l-0.7,5.6c-3.7,0.3-7.4,1.3-10.8,3l-2.9-3.7l-9.8,7.6l3,3.8c-2.3,2.8-4.1,6-5.3,9.3l-5.9-0.8l-1.6,12.3l5.9,0.8
	c0.3,3.7,1.2,7.3,2.9,10.7L37.4,82l7.6,9.8l4.5-3.5c1.8,1.5,3.8,2.8,5.9,3.8l0.2-3.2c-6.2-5.9-10.3-15.2-10.3-23.5
	c0-13.3,10.8-24.1,24-24.1c13.3,0,24,10.8,24,24.1c0,8-3.9,17.1-9.8,23.1l0.4,7.3l0.4,0.5l9.8-7.6L91.3,85c2.5-2.8,4.4-6.1,5.6-9.5
	l5.3,0.7l1.6-12.3L98.7,63.2"/>
<path class="st5" d="M70,53.1c-4.3,0-8,2-10.4,5.2c2.3-2,5.2-3.2,8.5-3.2c7.1,0,12.8,5.6,12.8,12.6c0,2.8-0.9,5.3-2.5,7.4
	c2.6-2.3,4.3-5.7,4.3-9.4C82.8,58.7,77.1,53.1,70,53.1"/>
</svg>
