<?xml version="1.0" encoding="utf-8"?>
<!-- Generator: Adobe Illustrator 19.2.0, SVG Export Plug-In . SVG Version: 6.00 Build 0)  -->
<svg version="1.1" id="圖層_1" xmlns="http://www.w3.org/2000/svg" xmlns:xlink="http://www.w3.org/1999/xlink" x="0px" y="0px"
	 viewBox="0 0 93 117" style="enable-background:new 0 0 93 117;" xml:space="preserve">
<style type="text/css">
	.st0{clip-path:url(#SVGID_2_);fill:#3DB1C3;}
	.st1{fill:#0B2F3E;}
	.st2{fill:#5E3819;}
	.st3{fill:#F2F2F2;}
	.st4{fill:#E7B48A;}
	.st5{fill:#F1BE91;}
	.st6{fill:#FFFFFF;}
	.st7{fill:#808080;}
	.st8{fill:#323333;}
	.st9{fill:#F9C9A7;}
	.st10{fill:#4D4D4D;}
	.st11{fill:#666666;}
	.st12{fill:#D65244;}
	.st13{fill:#C2413A;}
	.st14{fill:#2B566E;}
	.st15{fill:#E6E6E5;}
	.st16{fill:#274D63;}
	.st17{fill:#3AA8BA;}
	.st18{fill:#295268;}
	.st19{fill:#DADADA;}
	.st20{fill:#494949;}
	.st21{fill:#24495F;}
	.st22{fill:#C4C9B6;}
	.st23{fill:#C8E8F2;}
	.st24{fill:#6A766A;}
	.st25{fill:#4F727B;}
</style>
<g>
	<defs>
		<rect id="SVGID_1_" x="0.1" y="0.9" width="92.6" height="116.1"/>
	</defs>
	<clipPath id="SVGID_2_">
		<use xlink:href="#SVGID_1_"  style="overflow:visible;"/>
	</clipPath>
	<path class="st0" d="M92.7,57.1c0,25.6-20.7,46.3-46.3,46.3C20.7,103.4,0,82.7,0,57.1c0-25.6,20.7-46.3,46.3-46.3
		C71.9,10.8,92.7,31.5,92.7,57.1"/>
</g>
<path class="st1" d="M31.6,52.5c0.3,1.5-0.7,2.9-2.3,3.2c-1.5,0.3-2.9-0.7-3.2-2.2l-2.9-16.7c-0.3-1.5,0.7-2.9,2.3-3.2
	c1.5-0.3,2.9,0.7,3.2,2.3L31.6,52.5"/>
<path class="st1" d="M23.7,36.9c-1.9,1.8-2.8,5.3-2.2,9c0.7,3.8,2.7,6.7,5.1,7.7L23.7,36.9"/>
<path class="st1" d="M22.9,46.4c0.2,1.1-0.5,2.2-1.7,2.4c-1.1,0.2-2.2-0.5-2.3-1.6l-0.6-3.3c-0.2-1.1,0.5-2.1,1.6-2.3
	c1.1-0.2,2.2,0.5,2.4,1.6L22.9,46.4"/>
<path class="st1" d="M61.5,52.5c-0.3,1.5,0.7,2.9,2.2,3.2c1.5,0.3,2.9-0.7,3.2-2.2l2.9-16.7c0.3-1.5-0.7-2.9-2.3-3.2
	c-1.5-0.3-2.9,0.7-3.2,2.3L61.5,52.5"/>
<path class="st1" d="M69.4,36.9c1.9,1.8,2.8,5.3,2.2,9c-0.7,3.8-2.7,6.7-5.1,7.7L69.4,36.9"/>
<path class="st1" d="M70.2,46.4c-0.2,1.1,0.6,2.2,1.6,2.4c1.1,0.2,2.2-0.5,2.4-1.6l0.6-3.3c0.2-1.1-0.5-2.1-1.6-2.3
	c-1.1-0.2-2.2,0.5-2.4,1.6L70.2,46.4"/>
<path class="st1" d="M67.7,22.5c-0.8-0.1-1.5-0.6-2-1.3c-3.6-5.9-11-9.9-19.1-9.9c-8.1,0-15.6,4-19.1,9.9c-0.7,1.1-2.3,1.6-3.5,1.1
	c-1.3-0.5-1.8-1.8-1.2-3c4.2-7.4,13.6-12.6,23.9-12.5c10.3,0,19.7,5.1,23.9,12.5c0.7,1.2,0.1,2.5-1.2,3
	C68.7,22.5,68.2,22.6,67.7,22.5"/>
<path class="st1" d="M27.4,40.8c-1.3-2.2-2.3-4.6-2.8-7.2c-2.6-11.1,7.2-22.8,22-22.8c14.8,0,24.5,11.7,22,22.8
	c-0.5,2.5-1.5,5-2.8,7.2c1.2,0.2,2.4,0.4,3.5,0.7c1.3-2.2,2.3-4.6,2.8-7.1c3.5-12.8-7.8-26.9-25.5-27c-17.7,0-29,14.1-25.5,27
	c0.6,2.5,1.6,4.9,2.8,7.1C25,41.2,26.2,41,27.4,40.8"/>
<path class="st2" d="M59.7,15c3.5,4.1,4.7,11.1,4.2,16.4c-0.1,1.1-0.1,3.2-0.8,4c-1,1.2-3,0.2-4.4,0c-2-0.3-7.4-0.3-8.2-2.4
	c-0.2-0.4,0.1-1.8,0.1-2.3c0.1-1.6,0.2-3.3,0.3-4.9c0.3-3,0.9-5.7,1.4-8.6L59.7,15"/>
<polyline class="st3" points="68.7,75.6 73.5,71.9 65.1,60.8 60.3,64.4 68.7,75.6 "/>
<path class="st4" d="M61.8,42.7c0,2.2,1.4,3.9,3.2,3.9c1.7,0,3.2-1.8,3.2-3.9c0-2.2-1.4-3.9-3.2-3.9C63.2,38.8,61.8,40.6,61.8,42.7"
	/>
<path class="st4" d="M23.9,42.7c0,2.2,1.4,3.9,3.2,3.9c1.7,0,3.2-1.8,3.2-3.9c0-2.2-1.4-3.9-3.2-3.9C25.3,38.8,23.9,40.6,23.9,42.7"
	/>
<path class="st5" d="M27.1,67.6c0,9.9,8,17.9,17.9,17.9H47c9.9,0,17.9-8,17.9-17.9V37.1c0-9.9-8-17.9-17.9-17.9H45
	c-9.9,0-17.9,8-17.9,17.9V67.6"/>
<rect x="27.1" y="57.4" class="st6" width="37.9" height="32.1"/>
<rect x="57.4" y="84.9" class="st7" width="7.5" height="32.1"/>
<rect x="27.1" y="84.9" class="st7" width="7.5" height="32.1"/>
<rect x="27.1" y="82.2" class="st7" width="37.9" height="7.3"/>
<path class="st6" d="M51.5,34.3c-0.2,2.2,0.4,4.8,4,5.1c3.7,0.3,4.6-2.1,4.8-4.3L51.5,34.3"/>
<polyline class="st2" points="51,34.4 60.7,35.3 60.8,34.3 51.1,33.5 51,34.4 "/>
<path class="st8" d="M54.4,36.8c-0.1,0.8,0.5,1.5,1.3,1.5c0.8,0.1,1.5-0.5,1.5-1.3c0.1-0.8-0.5-1.5-1.3-1.5
	C55.1,35.5,54.4,36.1,54.4,36.8"/>
<path class="st6" d="M54.4,36c0,0.3,0.2,0.6,0.5,0.7c0.3,0,0.6-0.2,0.7-0.5c0-0.3-0.2-0.6-0.5-0.7C54.8,35.5,54.5,35.7,54.4,36"/>
<path class="st6" d="M32,35.9c0.4,2.2,1.8,4.4,5.3,3.7c3.6-0.7,3.8-3.3,3.4-5.5L32,35.9"/>
<polyline class="st2" points="31.6,36.2 41.1,34.3 40.9,33.3 31.4,35.3 31.6,36.2 "/>
<path class="st8" d="M35.5,37.6c0.2,0.8,0.9,1.3,1.7,1.1c0.8-0.2,1.3-0.9,1.1-1.7c-0.2-0.8-0.9-1.3-1.7-1.1
	C35.8,36.1,35.3,36.8,35.5,37.6"/>
<path class="st6" d="M35.3,36.8c0.1,0.3,0.4,0.5,0.7,0.5c0.3-0.1,0.5-0.4,0.5-0.7c-0.1-0.3-0.4-0.5-0.7-0.5
	C35.5,36.1,35.2,36.4,35.3,36.8"/>
<polyline class="st9" points="42,48.4 50,48.4 49.2,45 42.8,45 42,48.4 "/>
<polyline class="st4" points="43.6,48.4 48.4,48.4 47.6,34.1 44.4,34.1 43.6,48.4 "/>
<path class="st6" d="M40.3,52.4c0,0.8,2.5,1.4,5.7,1.4c3.1,0,5.7-0.6,5.7-1.4H40.3"/>
<rect x="57.3" y="112.3" class="st10" width="10.1" height="4.7"/>
<rect x="24.6" y="112.3" class="st10" width="10.1" height="4.7"/>
<polyline class="st2" points="37,29.3 37.1,30.2 33.6,30.5 33.5,29.7 37,29.3 "/>
<polyline class="st2" points="58.5,29.7 58.4,30.5 54.9,30.2 55,29.3 58.5,29.7 "/>
<rect x="44.7" y="82.2" class="st11" width="2.5" height="4.8"/>
<rect x="27.1" y="80.8" class="st2" width="37.9" height="1.4"/>
<polyline class="st12" points="47.6,57.4 49.6,79.8 46,83.3 42.4,79.8 44.4,57.4 47.6,57.4 "/>
<polyline class="st13" points="44,62 44.4,57.4 47.6,57.4 48,62 44,62 "/>
<polyline class="st3" points="46.5,57.4 66,57.4 66,61.8 49.1,63 46.5,57.4 "/>
<polyline class="st3" points="45.5,57.4 42.9,63 26,61.8 26,57.4 45.5,57.4 "/>
<polyline class="st4" points="71.7,83.1 73.9,83.6 75.5,76.3 73.3,75.8 71.7,83.1 "/>
<path class="st14" d="M53.5,81.5c-0.1,0.6,0.3,1.1,0.8,1.3l16,3.3c0.6,0.1,1.1-0.3,1.3-0.8l4.5-22.1c0.1-0.6-0.3-1.1-0.8-1.3
	l-16-3.3c-0.6-0.1-1.1,0.3-1.3,0.8L53.5,81.5"/>
<path class="st15" d="M65.9,62.6c-0.1,0.5,0.2,1,0.7,1.1c0.5,0.1,1-0.2,1.1-0.7c0.1-0.5-0.2-1-0.7-1.1C66.5,61.8,66,62.1,65.9,62.6"
	/>
<path class="st10" d="M66.3,62.7c-0.1,0.3,0.1,0.6,0.4,0.6c0.3,0.1,0.6-0.1,0.6-0.4c0.1-0.3-0.1-0.6-0.4-0.6
	C66.6,62.2,66.3,62.4,66.3,62.7"/>
<path class="st16" d="M64.7,72.8C64.7,72.8,64.7,72.8,64.7,72.8c-1-0.2-1.7-1.2-1.5-2.2c0.2-0.9,1-1.5,1.8-1.5c0.1,0,0.2,0,0.4,0
	c0,0,0,0,0,0L64.7,72.8"/>
<path class="st17" d="M71.6,85.3C71.6,85.3,71.6,85.2,71.6,85.3C71.6,85.2,71.6,85.3,71.6,85.3 M70.5,86.1L70.5,86.1L70.5,86.1
	c-0.1,0-0.1,0-0.2,0C70.4,86.1,70.5,86.1,70.5,86.1"/>
<path class="st18" d="M70.5,86.1L70.5,86.1c-0.1,0-0.1,0-0.2,0c0,0,0,0,0,0l-8-1.6l2.4-11.6c0.1,0,0.2,0,0.3,0
	c0.9,0,1.6-0.6,1.8-1.5c0.2-1-0.4-2-1.4-2.2l1.1-5.5c0.1,0,0.1,0,0.2,0c0.4,0,0.8-0.3,0.9-0.7c0.1-0.5-0.2-1-0.7-1.1l0.3-1.6l8,1.6
	c0.6,0.1,0.9,0.7,0.8,1.3l-4.5,22.1c0,0,0,0,0,0C71.5,85.8,71,86.1,70.5,86.1L70.5,86.1"/>
<path class="st19" d="M66.8,63.7c-0.1,0-0.1,0-0.2,0l0.1-0.4c0,0,0.1,0,0.1,0c0.2,0,0.5-0.2,0.5-0.4c0.1-0.3-0.1-0.6-0.4-0.6
	l0.1-0.4c0.5,0.1,0.8,0.6,0.7,1.1C67.6,63.4,67.2,63.7,66.8,63.7"/>
<path class="st20" d="M66.8,63.3C66.7,63.3,66.7,63.3,66.8,63.3l0.1-1c0.3,0.1,0.4,0.3,0.4,0.6C67.2,63.1,67,63.3,66.8,63.3"/>
<path class="st21" d="M65.1,72.9c-0.1,0-0.2,0-0.3,0l0.7-3.6c1,0.2,1.6,1.2,1.4,2.2C66.7,72.3,65.9,72.9,65.1,72.9"/>
<polyline class="st5" points="71.7,83.1 73.9,83.6 75.3,77.2 73.1,76.7 71.7,83.1 "/>
<polyline class="st5" points="69.2,77.2 74.5,78.9 75.1,77.2 69.8,75.5 69.2,77.2 "/>
<polyline class="st5" points="68,79.1 73.9,80.7 74.4,78.9 68.5,77.3 68,79.1 "/>
<polyline class="st5" points="68,81.3 73.7,82.6 74.1,80.8 68.4,79.5 68,81.3 "/>
<polyline class="st5" points="68.9,83.5 73.7,84.2 73.9,82.8 69.1,82 68.9,83.5 "/>
<rect x="31.4" y="65.5" class="st3" width="6.2" height="8.3"/>
<polyline class="st2" points="27.8,36 29.5,36 29.5,26.9 26.3,26.9 26.3,42.4 27.8,42.4 27.8,36 "/>
<path class="st2" d="M26.4,30.9c0-2.4-0.4-4.5,0.1-6.9c0.8-3.2,2.8-6.2,5.5-8.2c4.4-3.1,9-4,14-5.6c4.3-1.3,7.7-3.2,7.5-8.2
	c0-0.4-0.3-0.9-0.4-1.3c2.2,0.3,5.3,4.3,6.3,6.1c1.8,3.2,2.3,8.9,0.7,12.3c-2.6,5.4-9.1,7.3-14.7,7.2c0.3,0.3,0.6,0.6,1,0.8
	c-3.7-0.1-6.6,0.2-9.8-1.8c0.1,0.4-0.2,0.6-0.2,0.9c-1.6-0.1-4.4,0-5.7,0.8c-1.2,0.7-2.3,2.8-1.6,4.1L26.4,30.9"/>
<path class="st22" d="M51.5,34.4c-0.2,2.2,0.5,4.6,4,4.9c0.2,0,0.5,0,0.7,0c3,0,3.9-2.1,4.1-4.2l0.4,0l0.1-0.9l-9.6-0.9L51,34.4
	L51.5,34.4 M49,32.2H62v8.5H49V32.2z"/>
<path class="st23" d="M54.5,36.4c-0.1,0.1-0.1,0.3-0.1,0.5c-0.1,0.8,0.5,1.5,1.3,1.5c0,0,0.1,0,0.1,0c0.7,0,1.3-0.6,1.4-1.3
	c0.1-0.8-0.5-1.5-1.3-1.5c0,0-0.1,0-0.1,0c-0.1,0-0.3,0-0.4,0c-0.1-0.1-0.2-0.1-0.3-0.1c0,0,0,0-0.1,0c-0.3,0-0.6,0.2-0.6,0.5
	C54.4,36.1,54.5,36.3,54.5,36.4 M56.1,39.4c-0.2,0-0.4,0-0.7,0c-3.5-0.3-4.1-2.8-4-4.9l8.8,0.8C60,37.3,59.2,39.4,56.1,39.4"/>
<polyline class="st24" points="60.7,35.3 60.2,35.2 51.5,34.4 51,34.4 51.1,33.5 60.8,34.3 60.7,35.3 "/>
<path class="st25" d="M55.8,38.4c0,0-0.1,0-0.1,0c-0.8-0.1-1.3-0.8-1.3-1.5c0-0.2,0.1-0.3,0.1-0.5c0.1,0.2,0.3,0.3,0.5,0.3
	c0,0,0,0,0.1,0c0.3,0,0.6-0.2,0.6-0.6c0-0.2-0.1-0.4-0.2-0.5c0.1,0,0.2,0,0.4,0c0,0,0.1,0,0.1,0c0.8,0.1,1.3,0.8,1.3,1.5
	C57.1,37.8,56.5,38.4,55.8,38.4"/>
<path class="st23" d="M55,36.7C55,36.7,55,36.7,55,36.7c-0.3,0-0.5-0.2-0.5-0.3c0-0.1-0.1-0.2-0.1-0.3c0-0.3,0.3-0.5,0.6-0.5
	c0,0,0,0,0.1,0c0.1,0,0.2,0.1,0.3,0.1c0.2,0.1,0.3,0.3,0.2,0.5C55.6,36.5,55.4,36.7,55,36.7"/>
<path class="st6" d="M48.8,31.9h13.5v9.1H48.8V31.9z M49.3,40.3h12.3v-7.9H49.3V40.3z"/>
<path class="st22" d="M32,36.1c0.4,1.8,1.5,3.7,4,3.7c0.4,0,0.8,0,1.2-0.1c3.5-0.7,3.8-3.2,3.4-5.3l0.4-0.1l-0.2-0.9l-9.5,1.9
	l0.2,0.9L32,36.1 M30.2,32.2h12.9v8.5H30.2V32.2z"/>
<path class="st23" d="M35.5,37.1c0,0.2,0,0.3,0,0.5c0.1,0.7,0.7,1.1,1.4,1.1c0.1,0,0.2,0,0.3,0c0.8-0.2,1.3-0.9,1.1-1.7
	c-0.1-0.7-0.7-1.1-1.4-1.1c-0.1,0-0.2,0-0.3,0c-0.2,0-0.3,0.1-0.5,0.2c-0.1,0-0.1,0-0.2,0c0,0-0.1,0-0.1,0c-0.3,0.1-0.5,0.4-0.5,0.7
	C35.3,36.9,35.4,37,35.5,37.1 M36,39.8c-2.5,0-3.6-1.9-4-3.7l8.6-1.8c0.4,2.1,0.1,4.6-3.4,5.3C36.8,39.8,36.4,39.8,36,39.8"/>
<polyline class="st24" points="31.6,36.2 31.4,35.3 40.9,33.3 41.1,34.3 40.6,34.3 31.6,36.2 "/>
<path class="st25" d="M36.9,38.7c-0.7,0-1.2-0.5-1.4-1.1c0-0.2,0-0.3,0-0.5c0.1,0.1,0.3,0.2,0.4,0.2c0,0,0.1,0,0.1,0
	c0.3-0.1,0.5-0.4,0.5-0.7c0-0.2-0.2-0.4-0.4-0.4c0.1-0.1,0.3-0.2,0.5-0.2c0.1,0,0.2,0,0.3,0c0.7,0,1.2,0.5,1.4,1.1
	c0.2,0.8-0.3,1.5-1.1,1.7C37,38.7,36.9,38.7,36.9,38.7"/>
<path class="st23" d="M35.9,37.3c-0.2,0-0.3-0.1-0.4-0.2c-0.1-0.1-0.1-0.2-0.1-0.3c-0.1-0.3,0.1-0.6,0.5-0.7c0,0,0.1,0,0.1,0
	c0.1,0,0.1,0,0.2,0c0.2,0.1,0.3,0.2,0.4,0.4c0.1,0.3-0.1,0.6-0.5,0.7C36,37.3,35.9,37.3,35.9,37.3"/>
<path class="st6" d="M29.9,31.9h13.5v9.1H29.9V31.9z M30.5,40.3h12.3v-7.9H30.5V40.3z"/>
<path class="st6" d="M43.1,34.4c0-0.3,0.5-0.3,0.8-0.4c0.3-0.1,0.5-0.1,0.8-0.1c0.5-0.1,1-0.1,1.5-0.1c0.5,0,1,0,1.5,0.1
	c0.3,0,0.5,0.1,0.8,0.1c0.3,0.1,0.7,0,0.8,0.4c0-0.3,0-0.7,0-1c0-0.3-0.5-0.3-0.8-0.4c-0.3-0.1-0.5-0.1-0.8-0.1
	c-0.5-0.1-1-0.1-1.5-0.1c-0.5,0-1,0-1.5,0.1c-0.3,0-0.5,0.1-0.8,0.1c-0.3,0.1-0.7,0-0.8,0.4C43.1,33.7,43.1,34,43.1,34.4"/>
<rect x="26.2" y="33.3" class="st6" width="4.1" height="1"/>
<rect x="61.9" y="33.3" class="st6" width="4.1" height="1"/>
<path class="st1" d="M27.2,47.7c0,0.9-0.7,1.6-1.6,1.6c-0.9,0-1.6-0.7-1.6-1.6l-0.2-8.6c0-0.9,0.7-1.6,1.6-1.7
	c0.9,0,1.6,0.7,1.6,1.6L27.2,47.7"/>
<path class="st1" d="M64.9,47.8c0,0.9,0.7,1.6,1.6,1.6c0.9,0,1.6-0.7,1.6-1.6l0-8.6c0-0.9-0.7-1.6-1.6-1.6c-0.9,0-1.6,0.7-1.6,1.6
	L64.9,47.8"/>
<path class="st1" d="M54,56.8c0.1,0.8-1.3,2-3.2,2.5c-1.9,0.6-3.6-0.3-3.9-1.8C46.6,56,48,54.9,50.1,55C52.1,55.2,53.8,56,54,56.8"
	/>
<path class="st1" d="M51.4,58L51,56.8c0.1,0,7.2-1.5,8.8-1.9c1.3-0.4,2-1.5,2-1.5l3.8-7l1.2,0.6L63,54c0,0.1-0.9,1.6-2.7,2.1
	C58.6,56.5,51.7,58,51.4,58"/>
<path class="st6" d="M25.7,57.4c-0.3,0-0.6,0-0.9,0.1c-0.5,0.4-1.1,0.8-1.7,1.1c-0.4,0.5-0.6,1.1-0.6,1.8c0,1.4-0.1,2.6-0.1,3.6
	c0-0.1,0-0.3-0.1-0.4c-0.2-1.4-0.3-3-0.3-4.4c-2,0.8-4.2,0.8-6.2,0.2c0,1.8,0.1,3.6,0.4,5.3c0.5,3.7,1.6,6.3,3,7.7
	c1.1,1.1,2.4,1.5,3.8,1.3c1.2-0.2,2.2-0.7,3-1.4c0.9-0.8,1.5-2,1.9-3.5c0.5-1.9,0.6-4.3,0.7-8.1C28.8,58.9,27.4,57.5,25.7,57.4"/>
<polyline class="st5" points="20.8,53.6 20.8,60.4 16.9,60.4 16.9,53.6 20.8,53.6 "/>
<polyline class="st4" points="26.7,48.3 22,55.5 20,54.1 24.7,46.9 26.7,48.3 "/>
<polyline class="st4" points="21.1,45.1 18.8,49.7 16.9,48.8 19.2,44.2 21.1,45.1 "/>
<polyline class="st4" points="23.2,44.7 20,46.1 19.2,44.2 22.3,42.9 23.2,44.7 "/>
<polyline class="st4" points="24.9,45.9 21.5,44.9 22.3,42.9 25.5,44 24.9,45.9 "/>
<polyline class="st4" points="21.6,46 22,60.4 16.9,60.5 17,49.5 21.6,46 "/>
<polyline class="st4" points="22.6,50.2 22.5,54.9 16.9,54.8 17,50.2 22.6,50.2 "/>
<polyline class="st5" points="19.5,48.6 19.4,60.5 16.9,60.4 17,48.6 19.5,48.6 "/>
<polyline class="st5" points="22,46.8 18.4,50.2 17,48.8 20.6,45.4 22,46.8 "/>
<polyline class="st5" points="24.3,46.3 21.1,47.3 20.5,45.5 23.7,44.5 24.3,46.3 "/>
<polyline class="st5" points="26.5,46.8 23.3,46.5 23.5,44.5 26.7,44.8 26.5,46.8 "/>
<polyline class="st3" points="22.8,63.1 23.1,59 15.9,58.5 15.7,62.7 22.8,63.1 "/>
</svg>
