<?xml version="1.0" encoding="utf-8"?>
<!-- Generator: Adobe Illustrator 19.2.0, SVG Export Plug-In . SVG Version: 6.00 Build 0)  -->
<svg version="1.1" id="圖層_1" xmlns="http://www.w3.org/2000/svg" xmlns:xlink="http://www.w3.org/1999/xlink" x="0px" y="0px"
	 viewBox="0 0 119 117" style="enable-background:new 0 0 119 117;" xml:space="preserve">
<style type="text/css">
	.st0{fill:#0B2F3E;}
	.st1{fill:#2B566E;}
	.st2{fill:#FFFFFF;}
	.st3{fill:#CFE9F7;}
	.st4{fill:#22A7B4;}
	.st5{fill:#8DBECF;}
	.st6{fill:#EBBA8F;}
	.st7{fill:#E1AF88;}
</style>
<path class="st0" d="M107.1,5.6H11.8c-1.4,0-2.5,1.2-2.5,2.7v62.8c0,1.5,1.1,2.7,2.5,2.7h95.3c1.4,0,2.5-1.2,2.5-2.7V8.3
	C109.6,6.8,108.4,5.6,107.1,5.6"/>
<rect x="14.3" y="10.9" class="st1" width="90.2" height="57.6"/>
<polyline class="st0" points="14.3,68.5 104.5,10.9 104.5,68.5 14.3,68.5 "/>
<path class="st2" d="M118.8,72.3H0.1C0,72.4,0,72.6,0,72.7v1.2c0,2,2.4,3.7,5.4,3.7h108.1c3,0,5.4-1.7,5.4-3.7v-1.2
	C118.9,72.6,118.8,72.4,118.8,72.3"/>
<path class="st3" d="M0.4,75.4c0.8,1.3,2.7,2.3,5,2.3h108.1c2.2,0,4.1-0.9,5-2.3H0.4"/>
<path class="st3" d="M50.7,72.3v0.5c0,0.4,0.5,0.7,1.1,0.7H67c0.6,0,1.1-0.3,1.1-0.7v-0.5H50.7"/>
<path class="st2" d="M24.8,64.7c-1.8,0-3.2-1.4-3.2-3.2V4c0-1.8,1.4-3.2,3.2-3.2h69.3c1.8,0,3.2,1.4,3.2,3.2v57.4
	c0,1.8-1.4,3.2-3.2,3.2H24.8"/>
<path class="st4" d="M94.1,1.2c1.6,0,2.8,1.3,2.8,2.8v57.4c0,1.6-1.3,2.8-2.8,2.8H24.8c-1.6,0-2.8-1.3-2.8-2.8V4
	c0-1.6,1.3-2.8,2.8-2.8H94.1 M94.1,0.4H24.8c-2,0-3.6,1.6-3.6,3.6v57.4c0,2,1.6,3.6,3.6,3.6h69.3c2,0,3.6-1.6,3.6-3.6V4
	C97.7,2,96.1,0.4,94.1,0.4z"/>
<path class="st4" d="M94.1,0.4H24.8c-2,0-3.6,1.6-3.6,3.6v6.9h76.6V4C97.7,2,96.1,0.4,94.1,0.4"/>
<path class="st2" d="M28.6,5.8c0,1.1-0.9,2-2,2c-1.1,0-2-0.9-2-2c0-1.1,0.9-2,2-2C27.6,3.8,28.6,4.7,28.6,5.8"/>
<path class="st2" d="M34.2,5.8c0,1.1-0.9,2-2,2c-1.1,0-2-0.9-2-2c0-1.1,0.9-2,2-2C33.3,3.8,34.2,4.7,34.2,5.8"/>
<path class="st2" d="M39.9,5.8c0,1.1-0.9,2-2,2c-1.1,0-2-0.9-2-2c0-1.1,0.9-2,2-2C39,3.8,39.9,4.7,39.9,5.8"/>
<rect x="45.5" y="4" class="st2" width="46.9" height="3.6"/>
<path class="st4" d="M59.5,63.1c-12.8,0-23.2-10.4-23.2-23.2c0-12.8,10.4-23.2,23.2-23.2c12.8,0,23.2,10.4,23.2,23.2
	C82.7,52.7,72.3,63.1,59.5,63.1 M59.5,20.2c-10.9,0-19.7,8.8-19.7,19.7c0,10.9,8.8,19.7,19.7,19.7c10.9,0,19.7-8.8,19.7-19.7
	C79.2,29,70.3,20.2,59.5,20.2z"/>
<path class="st5" d="M59.5,54.7c-8.2,0-14.8-6.6-14.8-14.8c0-8.2,6.6-14.8,14.8-14.8c8.2,0,14.8,6.6,14.8,14.8
	C74.3,48.1,67.6,54.7,59.5,54.7 M59.5,27.3c-6.9,0-12.6,5.6-12.6,12.6c0,6.9,5.6,12.6,12.6,12.6c6.9,0,12.6-5.6,12.6-12.6
	C72.1,33,66.4,27.3,59.5,27.3z"/>
<path class="st6" d="M100.3,62.6c-2.5,0-4.5,1.6-5.2,3.9c-0.9-0.2-1.7-0.4-2.6-0.4v-3.7c0-3-2.4-5.4-5.4-5.4c-3,0-5.4,2.4-5.4,5.4
	v3.7H79v-8.6c0-3-2.4-5.4-5.4-5.4c-3,0-5.4,2.4-5.4,5.4v8.6c-0.9,0-1.8,0.2-2.6,0.3V40.7c0-3-2.4-5.4-5.4-5.4c-3,0-5.4,2.4-5.4,5.4
	v38.8c0,0.2,0,0.4,0,0.6v13.5l-2.5-2.5V80.3c0-4.4-3.6-8-8-8h-2.7c-0.1,0-0.2,0-0.3,0v10c0,0,0,0-0.1,0v13.3l17.9,17.5
	c2.5,2.4,5.9,3.9,9.7,3.9h22.8c7.8,0,14.1-6.3,14.1-14.1V68C105.7,65.1,103.3,62.6,100.3,62.6"/>
<path class="st7" d="M58.6,97.3V80.1c0-0.2,0-0.4,0-0.6V40.7c0-2.3,1.4-4.3,3.5-5c-0.6-0.2-1.3-0.4-1.9-0.4c-3,0-5.4,2.4-5.4,5.4
	v38.8c0,0.2,0,0.4,0,0.6v13.3L58.6,97.3"/>
</svg>
