<?xml version="1.0" encoding="utf-8"?>
<!-- Generator: Adobe Illustrator 19.2.0, SVG Export Plug-In . SVG Version: 6.00 Build 0)  -->
<svg version="1.1" id="圖層_1" xmlns="http://www.w3.org/2000/svg" xmlns:xlink="http://www.w3.org/1999/xlink" x="0px" y="0px"
	 viewBox="0 0 366.7 207.5" style="enable-background:new 0 0 366.7 207.5;" xml:space="preserve">
<style type="text/css">
	.st0{fill:url(#SVGID_1_);}
	.st1{fill:url(#SVGID_2_);}
	.st2{fill:url(#SVGID_3_);}
	.st3{fill:url(#SVGID_4_);}
	.st4{fill:url(#SVGID_5_);}
	.st5{fill:url(#SVGID_6_);}
	.st6{fill:url(#SVGID_7_);}
	.st7{fill:url(#SVGID_8_);}
	.st8{fill:url(#SVGID_9_);}
	.st9{fill:url(#SVGID_10_);}
	.st10{fill:url(#SVGID_11_);}
	.st11{fill:url(#SVGID_12_);}
	.st12{fill:url(#SVGID_13_);}
	.st13{fill:url(#SVGID_14_);}
	.st14{fill:url(#SVGID_15_);}
	.st15{fill:#DCDDDD;}
	.st16{fill:url(#SVGID_16_);}
	.st17{fill:url(#SVGID_17_);}
	.st18{fill:url(#SVGID_18_);}
	.st19{fill:#D3D3D4;}
	.st20{fill:url(#SVGID_19_);}
	.st21{fill:url(#SVGID_20_);}
	.st22{fill:url(#SVGID_21_);}
	.st23{fill:url(#SVGID_22_);}
	.st24{fill:#C9C9CA;}
	.st25{fill:url(#SVGID_23_);}
	.st26{fill:url(#SVGID_24_);}
</style>
<linearGradient id="SVGID_1_" gradientUnits="userSpaceOnUse" x1="-110.1795" y1="-316.8093" x2="-109.1795" y2="-316.8093" gradientTransform="matrix(0 -31.0863 -31.0863 0 -9832.2227 -3394.4641)">
	<stop  offset="0" style="stop-color:#EA5514"/>
	<stop  offset="1" style="stop-color:#F39700"/>
</linearGradient>
<path class="st0" d="M16.2,0c4.5,0,8.3,1.6,11.5,4.8c3.2,3.2,4.8,7.1,4.8,11.7c0,4.5-1.6,8.4-4.7,11.6c-3.2,3.2-6.9,4.8-11.3,4.8
	c-4.5,0-8.4-1.6-11.6-4.9C1.6,24.8,0,20.9,0,16.2c0-4.5,1.6-8.3,4.7-11.5C7.9,1.6,11.7,0,16.2,0z"/>
<linearGradient id="SVGID_2_" gradientUnits="userSpaceOnUse" x1="-113.1939" y1="-317.1042" x2="-112.1939" y2="-317.1042" gradientTransform="matrix(0 -95.4014 -95.4014 0 -30237.0488 -10649.6563)">
	<stop  offset="0" style="stop-color:#EA5514"/>
	<stop  offset="1" style="stop-color:#F39700"/>
</linearGradient>
<polyline class="st1" points="28.3,42.5 2,42.5 2,147.3 2,138.5 10.5,136.6 2,138.4 2,135.7 28.1,132.1 28.1,132.6 28.3,132.6 
	28.3,42.5 "/>
<linearGradient id="SVGID_3_" gradientUnits="userSpaceOnUse" x1="-114.9316" y1="-314.4616" x2="-113.9316" y2="-314.4616" gradientTransform="matrix(49.876 0 0 -49.876 5734.1377 -15534.668)">
	<stop  offset="0" style="stop-color:#E83928"/>
	<stop  offset="1" style="stop-color:#ED6D10"/>
</linearGradient>
<polyline class="st2" points="51.9,127.3 28.3,132.6 28.1,132.6 28.1,132.9 10.5,136.6 2,138.5 2,147.3 2,171.6 51.9,132.9 
	51.9,127.3 "/>
<linearGradient id="SVGID_4_" gradientUnits="userSpaceOnUse" x1="-115.8278" y1="-317.3698" x2="-114.8278" y2="-317.3698" gradientTransform="matrix(0 118.1091 118.1091 0 37560.4727 13770.8057)">
	<stop  offset="0" style="stop-color:#601986"/>
	<stop  offset="0.5436" style="stop-color:#A40B5D"/>
	<stop  offset="1" style="stop-color:#D70051"/>
</linearGradient>
<polyline class="st3" points="89.8,65.2 62.6,65.2 62.6,206.9 89.8,171.8 89.8,92.5 62.7,92.5 62.7,91.3 89.8,91.3 89.8,65.2 "/>
<linearGradient id="SVGID_5_" gradientUnits="userSpaceOnUse" x1="-114.847" y1="-315.3121" x2="-113.847" y2="-315.3121" gradientTransform="matrix(71.6276 0 0 -71.6276 8263.7012 -22506.8848)">
	<stop  offset="0" style="stop-color:#D70050"/>
	<stop  offset="1" style="stop-color:#A50B5E"/>
</linearGradient>
<polygon class="st4" points="97.8,91.1 37.5,91.1 37.5,65.2 109.1,65.2 "/>
<linearGradient id="SVGID_6_" gradientUnits="userSpaceOnUse" x1="-114.443" y1="-319.3159" x2="-113.443" y2="-319.3159" gradientTransform="matrix(-67.3489 0 0 67.3489 -7562.771 21545.3965)">
	<stop  offset="0" style="stop-color:#036EB8"/>
	<stop  offset="1" style="stop-color:#2FA8E1"/>
</linearGradient>
<path class="st5" d="M136.5,51.1l-0.2,0L136.5,51.1C136.5,51.1,136.5,51.1,136.5,51.1 M51.7,28.6L51.7,28.6L51.7,28.6 M142.5,28.5
	c-10.1,0-25,0-39.8,0.1c-14.8,0-29.5,0.1-39.2,0.1c-7.1,0-11.6,0-11.7-0.1l18,22.5h65.1h1.4l9.1-22.6h1.1
	C145.2,28.5,143.9,28.5,142.5,28.5"/>
<linearGradient id="SVGID_7_" gradientUnits="userSpaceOnUse" x1="-114.9978" y1="-313.8143" x2="-113.9978" y2="-313.8143" gradientTransform="matrix(40.359 0 0 -40.359 4763.6895 -12599.3438)">
	<stop  offset="0" style="stop-color:#036EB8"/>
	<stop  offset="1" style="stop-color:#2FA8E1"/>
</linearGradient>
<path class="st6" d="M147.6,28.5L147.6,28.5c-0.4,0-0.8,0-1.2,0l0,0l-9.8,22.6l0,0c0,0,0,0,0,0c-5.5,12.6-11.6,26.4-12.7,29
	c-2.2,5.1-1.8,9.4-0.5,12.5c1.3,3.1,6.8,7.2,9.8,8.4c2.4,1,5.1,2.2,5.2,2.2l8.1-19.3c0,0,0.1,0,0.2,0.1l15-35.2
	c0.6-1.7,1.1-3.4,1.1-5.3C162.6,35.3,155.9,28.5,147.6,28.5L147.6,28.5"/>
<linearGradient id="SVGID_8_" gradientUnits="userSpaceOnUse" x1="-112.7142" y1="-318.8798" x2="-111.7142" y2="-318.8798" gradientTransform="matrix(-39.5588 -38.8716 -38.8716 39.5588 -16501.4883 8352.042)">
	<stop  offset="0" style="stop-color:#6EBA45"/>
	<stop  offset="1" style="stop-color:#DAE000"/>
</linearGradient>
<path class="st7" d="M301.7,101.8l-1.6,3.3c0-0.1,0.1-0.2,0.1-0.3L301.7,101.8 M319.4,67.5c-0.1,0-0.1,0-0.2,0c0.7,0,1,0,1,0l0,0
	l0,0l-18.6,35.1c-0.5,0.6-1,1.5-1.4,2.3l-0.1,0.1c3.7-6.9,10.9-11.6,19.2-11.6c12.1,0,21.9,9.8,21.9,21.9c0,5.4-2,10.3-5.3,14.1
	l20.3,15.8c6.7-8.2,10.8-18.5,10.8-29.9C367.1,88.8,345.7,67.5,319.4,67.5"/>
<linearGradient id="SVGID_9_" gradientUnits="userSpaceOnUse" x1="-117.1878" y1="-318.5079" x2="-116.1878" y2="-318.5079" gradientTransform="matrix(-17.4371 46.1113 46.1113 17.4371 12945.1309 11027.1064)">
	<stop  offset="0" style="stop-color:#00AFA9"/>
	<stop  offset="1" style="stop-color:#19AD5E"/>
</linearGradient>
<path class="st8" d="M318.7,67.5c-26,0.4-47,21.5-47,47.7c0,5.6,1.2,11,3,16l23.7-10.5c-0.5-1.8-0.8-3.6-0.8-5.5c0-3.2,0.8-6.3,2-9
	l-0.1,0.2c0,0,0.1-0.1,0.2-0.3l-0.1,0.2l0.1-0.2c0.1-0.2,0.3-0.6,0.5-1l1.6-3.3L318.7,67.5"/>
<linearGradient id="SVGID_10_" gradientUnits="userSpaceOnUse" x1="-117.1582" y1="-314.5428" x2="-116.1582" y2="-314.5428" gradientTransform="matrix(30.2242 22.8619 22.8619 -30.2242 11028.293 -6700.0396)">
	<stop  offset="0" style="stop-color:#19AD5E"/>
	<stop  offset="1" style="stop-color:#6EBA45"/>
</linearGradient>
<path class="st9" d="M336,129.2c-4,4.7-9.9,7.8-16.6,7.8c-10.2,0-18.6-7-21.1-16.4l-23.7,10.5c6.6,18.4,24.1,31.7,44.8,31.7
	c15,0,28.2-7,36.9-17.8L336,129.2z"/>
<linearGradient id="SVGID_11_" gradientUnits="userSpaceOnUse" x1="-114.8968" y1="-314.7553" x2="-113.8968" y2="-314.7553" gradientTransform="matrix(55.7264 -0.1184 -0.1184 -55.7264 6547.2559 -17471.6074)">
	<stop  offset="0" style="stop-color:#0097E0"/>
	<stop  offset="0.4564" style="stop-color:#2FA8E1"/>
	<stop  offset="1" style="stop-color:#00AFA9"/>
</linearGradient>
<path class="st10" d="M224.7,19.4l-35,68.6c-4.6,8.9-7.5,15.5-8.8,19.7c-1.3,4.3-1.9,8.5-1.9,12.8c0,9,2.8,17.1,8.2,24.5l0,0l0,0
	l0,0l14.2-27.1l3.7-7c0.1-0.2,0.2-0.4,0.3-0.5l0,0l0,0l-0.3,0.5c0,0.1-0.1,0.1-0.1,0.2l0,0c0.1-0.1,0.1-0.3,0.2-0.4l-0.2,0.4
	c0,0,0,0,0,0.1c-0.1,0.2-0.2,0.5-0.3,0.7l8.4-16.1l28.2-55L224.7,19.4"/>
<linearGradient id="SVGID_12_" gradientUnits="userSpaceOnUse" x1="-114.831" y1="-315.4687" x2="-113.831" y2="-315.4687" gradientTransform="matrix(77.7463 0 0 -77.7463 9115.2041 -24406.6602)">
	<stop  offset="0" style="stop-color:#00AFA9"/>
	<stop  offset="1" style="stop-color:#19AD5E"/>
</linearGradient>
<path class="st11" d="M187.2,144.9L187.2,144.9L187.2,144.9C187.2,144.9,187.2,144.9,187.2,144.9L187.2,144.9 M205,110.7l-3.7,7
	l3.6-6.8C204.9,110.9,205,110.8,205,110.7 M205.3,110.2c-0.1,0.2-0.2,0.3-0.3,0.5L205.3,110.2 M225.1,76.8l-13.8,26.9
	c3-2.1,6.6-3.3,10.5-3.3c10.3,0,18.7,8.7,18.7,19.4c0,10.7-8.4,19.4-18.7,19.4c-10.3,0-18.7-8.7-18.7-19.4c0-2.9,0.5-5.7,1.5-8.1
	c0.1-0.2,0.2-0.5,0.3-0.7c-0.9,1.7-1.5,3.9-1.7,6l-15.8,28.3c1.2,1.6,2.4,3.2,3.9,4.7c8.2,8.6,18.5,12.9,30.9,12.9
	c11.8,0,21.9-4.1,30.2-12.4c8.4-8.3,12.5-18.4,12.5-30.3c0-12.4-4.1-22.7-12.2-31C245.1,81.3,235.8,77.3,225.1,76.8"/>
<linearGradient id="SVGID_13_" gradientUnits="userSpaceOnUse" x1="-116.5975" y1="-316.1058" x2="-115.5975" y2="-316.1058" gradientTransform="matrix(36.6312 49.714 49.714 -36.6312 20106.9883 -5675.4014)">
	<stop  offset="0" style="stop-color:#0097E0"/>
	<stop  offset="0.4564" style="stop-color:#2FA8E1"/>
	<stop  offset="1" style="stop-color:#00AFA9"/>
</linearGradient>
<path class="st12" d="M148,84.7l-9.5,18.6c1.2,0.5,8.2,4.1,8.2,15.4c0,5.7-2,10.4-6,14.3c-4,3.9-9.1,5.9-15.1,5.9
	c-1.2,0-2.2-0.4-3.3-0.5l-14.7,21.5c4.6,1.1,12.6,2.9,16.6,2.9c14,0,25.6-4.3,34.6-12.8c9.1-8.5,13.6-19,13.6-31.2
	c0-8.4-2.3-15.7-7-21.8c-3.2-4.3-7.7-7.3-12.7-9.8C151.8,86.7,149.5,85.6,148,84.7 M146.4,83.9l-8.1,19.3c0,0,0,0,0,0l0,0l8.2-19.3
	l0.6,0.3c-0.3-0.1-0.5-0.2-0.6-0.3C146.4,83.9,146.4,83.9,146.4,83.9"/>
<linearGradient id="SVGID_14_" gradientUnits="userSpaceOnUse" x1="-113.1939" y1="-317.1032" x2="-112.1939" y2="-317.1032" gradientTransform="matrix(0 -95.4014 -95.4014 0 -30237.0488 -10649.6563)">
	<stop  offset="0" style="stop-color:#CB480E"/>
	<stop  offset="1" style="stop-color:#D28300"/>
</linearGradient>
<polyline class="st13" points="28.1,132.1 2,135.7 2,138.4 10.5,136.6 28.1,132.6 28.1,132.1 "/>
<linearGradient id="SVGID_15_" gradientUnits="userSpaceOnUse" x1="-114.9316" y1="-314.1645" x2="-113.9316" y2="-314.1645" gradientTransform="matrix(49.876 0 0 -49.876 5734.1377 -15534.668)">
	<stop  offset="0" style="stop-color:#C92F20"/>
	<stop  offset="1" style="stop-color:#CD5E09"/>
</linearGradient>
<polyline class="st14" points="28.1,132.6 10.5,136.6 28.1,132.9 28.1,132.6 "/>
<polyline class="st15" points="89.8,91.3 89.8,91.3 89.8,92.5 89.8,92.5 89.8,91.3 "/>
<linearGradient id="SVGID_16_" gradientUnits="userSpaceOnUse" x1="-115.8278" y1="-317.3696" x2="-114.8278" y2="-317.3696" gradientTransform="matrix(0 118.1091 118.1091 0 37560.4727 13770.8057)">
	<stop  offset="0" style="stop-color:#540F76"/>
	<stop  offset="0.5436" style="stop-color:#8D0050"/>
	<stop  offset="1" style="stop-color:#BA0045"/>
</linearGradient>
<polyline class="st16" points="89.8,91.3 62.7,91.3 62.7,92.5 89.8,92.5 89.8,91.3 "/>
<polyline class="st15" points="136.3,51.1 136.3,51.1 136.3,51.1 136.3,51.1 "/>
<linearGradient id="SVGID_17_" gradientUnits="userSpaceOnUse" x1="-114.443" y1="-319.3159" x2="-113.443" y2="-319.3159" gradientTransform="matrix(-67.3489 0 0 67.3489 -7562.771 21545.3965)">
	<stop  offset="0" style="stop-color:#025FA1"/>
	<stop  offset="1" style="stop-color:#2892C3"/>
</linearGradient>
<path class="st17" d="M146.4,28.5h-1.1l-9.1,22.6h0l0.2,0C141.7,39.3,146.4,28.5,146.4,28.5L146.4,28.5L146.4,28.5"/>
<linearGradient id="SVGID_18_" gradientUnits="userSpaceOnUse" x1="-114.9978" y1="-313.1681" x2="-113.9978" y2="-313.1681" gradientTransform="matrix(40.359 0 0 -40.359 4763.6895 -12599.3438)">
	<stop  offset="0" style="stop-color:#025FA1"/>
	<stop  offset="1" style="stop-color:#2892C3"/>
</linearGradient>
<path class="st18" d="M146.4,28.5c0,0-4.7,10.8-9.9,22.6l0,0L146.4,28.5"/>
<path class="st19" d="M138.3,103.3l0.2,0.1l0,0C138.4,103.3,138.3,103.3,138.3,103.3 M147.1,84.3c0.2,0.1,0.5,0.3,0.9,0.4l0,0
	L147.1,84.3"/>
<linearGradient id="SVGID_19_" gradientUnits="userSpaceOnUse" x1="-116.5975" y1="-315.6885" x2="-115.5975" y2="-315.6885" gradientTransform="matrix(36.6312 49.714 49.714 -36.6312 20106.9883 -5675.4014)">
	<stop  offset="0" style="stop-color:#007FBB"/>
	<stop  offset="0.4564" style="stop-color:#258CBB"/>
	<stop  offset="1" style="stop-color:#00928E"/>
</linearGradient>
<path class="st20" d="M146.5,84l-8.2,19.3l0,0c0,0,0.1,0,0.2,0.1l9.5-18.6c-0.3-0.2-0.6-0.3-0.9-0.4L146.5,84"/>
<linearGradient id="SVGID_20_" gradientUnits="userSpaceOnUse" x1="-114.8968" y1="-315.2682" x2="-113.8968" y2="-315.2682" gradientTransform="matrix(55.7264 -0.1184 -0.1184 -55.7264 6547.2559 -17471.6074)">
	<stop  offset="0" style="stop-color:#007FBB"/>
	<stop  offset="0.4564" style="stop-color:#258CBB"/>
	<stop  offset="1" style="stop-color:#00928E"/>
</linearGradient>
<path class="st21" d="M205.1,110.5c-0.1,0.1-0.1,0.3-0.2,0.4L205.1,110.5"/>
<path class="st19" d="M187.2,144.9l0.2,0.3l0,0C187.3,145.1,187.3,145,187.2,144.9"/>
<linearGradient id="SVGID_21_" gradientUnits="userSpaceOnUse" x1="-114.8968" y1="-315.5764" x2="-113.8968" y2="-315.5764" gradientTransform="matrix(55.7264 -0.1184 -0.1184 -55.7264 6547.2559 -17471.6074)">
	<stop  offset="0" style="stop-color:#007FBB"/>
	<stop  offset="0.4564" style="stop-color:#258CBB"/>
	<stop  offset="1" style="stop-color:#00928E"/>
</linearGradient>
<path class="st22" d="M201.3,117.8l-14.2,27.1l0,0L201.3,117.8 M204.9,110.9L204.9,110.9C204.9,110.9,204.9,110.9,204.9,110.9
	C204.9,110.9,204.9,110.9,204.9,110.9"/>
<linearGradient id="SVGID_22_" gradientUnits="userSpaceOnUse" x1="-114.831" y1="-315.5745" x2="-113.831" y2="-315.5745" gradientTransform="matrix(77.7463 0 0 -77.7463 9115.2041 -24406.6602)">
	<stop  offset="0" style="stop-color:#00928E"/>
	<stop  offset="1" style="stop-color:#0D914E"/>
</linearGradient>
<path class="st23" d="M204.9,110.9l-3.6,6.8l-14.2,27.1l0,0c0.1,0.1,0.2,0.2,0.2,0.3l15.8-28.3C203.5,114.9,204.1,112.7,204.9,110.9
	C204.9,110.9,204.9,110.9,204.9,110.9"/>
<path class="st24" d="M300.1,104.9c0,0.1-0.1,0.2-0.1,0.3l-0.3,0.6l0,0c-0.1,0.1-0.1,0.2-0.2,0.4L300.1,104.9 M319.2,67.5
	c-0.2,0-0.3,0-0.5,0l0,0.1c0,0,0.1,0,0.1,0l-17,34.3l17-34.3C318.9,67.5,319,67.5,319.2,67.5"/>
<linearGradient id="SVGID_23_" gradientUnits="userSpaceOnUse" x1="-112.7142" y1="-318.7605" x2="-111.7142" y2="-318.7605" gradientTransform="matrix(-39.5588 -38.8716 -38.8716 39.5588 -16501.4883 8352.042)">
	<stop  offset="0" style="stop-color:#559434"/>
	<stop  offset="1" style="stop-color:#ABB100"/>
</linearGradient>
<path class="st25" d="M300.2,104.8c0,0.1-0.1,0.2-0.1,0.3l-0.1,0.1c0-0.1,0.1-0.2,0.1-0.3L300.2,104.8 M320.2,67.5c0,0-0.4,0-1,0
	c-0.1,0-0.3,0-0.4,0.1l-17,34.3l-1.5,3c0.4-0.8,0.9-1.6,1.4-2.3L320.2,67.5"/>
<linearGradient id="SVGID_24_" gradientUnits="userSpaceOnUse" x1="-117.1878" y1="-318.2438" x2="-116.1878" y2="-318.2438" gradientTransform="matrix(-17.4371 46.1113 46.1113 17.4371 12945.1309 11027.1064)">
	<stop  offset="0" style="stop-color:#008C87"/>
	<stop  offset="1" style="stop-color:#098B4A"/>
</linearGradient>
<path class="st26" d="M299.7,105.8l-0.1,0.2c-0.1,0.2-0.2,0.3-0.2,0.3l0.1-0.2C299.6,106,299.6,105.9,299.7,105.8 M299.7,105.8
	L299.7,105.8L299.7,105.8 M300.1,105.1c-0.2,0.4-0.4,0.7-0.5,1l0.1-0.2l0,0L300.1,105.1 M318.7,67.5
	C318.7,67.5,318.7,67.5,318.7,67.5l-17,34.3L318.7,67.5"/>
</svg>
